<?xml version="1.0" standalone="no"?>
 <!DOCTYPE svg PUBLIC "-//W3C//DTD SVG 1.1//EN" 
 "http://www.w3.org/Graphics/SVG/1.1/DTD/svg11.dtd"> 
<svg xmlns="http://www.w3.org/2000/svg" version="1.1" 
    width="7.61238cm" height="5.10286cm" viewBox="0 0 29970 20090 ">
<title>SVG Picture created as mayoESC-F.Cu.svg date 2017/02/22 01:08:18 </title>
  <desc>Picture generated by PCBNEW </desc>
<g style="fill:#000000; fill-opacity:1;stroke:#000000; stroke-opacity:1;
stroke-linecap:round; stroke-linejoin:round; "
 transform="translate(0 0) scale(1 1)">
</g>
<g style="fill:#000000; fill-opacity:0.0; 
stroke:#000000; stroke-width:-0.000393701; stroke-opacity:1; 
stroke-linecap:round; stroke-linejoin:round;">
</g>
<g style="fill:#000000; fill-opacity:1.0; 
stroke:#000000; stroke-width:0; stroke-opacity:1; 
stroke-linecap:round; stroke-linejoin:round;">
<circle cx="8982.65" cy="17883.9" r="590.551" /> 
</g>
<g style="fill:#000000; fill-opacity:1.0; 
stroke:#000000; stroke-width:39.3701; stroke-opacity:1; 
stroke-linecap:round; stroke-linejoin:round;">
</g>
<g style="fill:#000000; fill-opacity:1.0; 
stroke:#000000; stroke-width:0; stroke-opacity:1; 
stroke-linecap:round; stroke-linejoin:round;">
<circle cx="18732.7" cy="17883.9" r="590.551" /> 
</g>
<g style="fill:#000000; fill-opacity:1.0; 
stroke:#000000; stroke-width:39.3701; stroke-opacity:1; 
stroke-linecap:round; stroke-linejoin:round;">
</g>
<g style="fill:#000000; fill-opacity:1.0; 
stroke:#000000; stroke-width:0; stroke-opacity:1; 
stroke-linecap:round; stroke-linejoin:round;">
<circle cx="6232.65" cy="13633.9" r="590.551" /> 
</g>
<g style="fill:#000000; fill-opacity:1.0; 
stroke:#000000; stroke-width:39.3701; stroke-opacity:1; 
stroke-linecap:round; stroke-linejoin:round;">
</g>
<g style="fill:#000000; fill-opacity:1.0; 
stroke:#000000; stroke-width:0; stroke-opacity:1; 
stroke-linecap:round; stroke-linejoin:round;">
<circle cx="10482.7" cy="13383.9" r="590.551" /> 
</g>
<g style="fill:#000000; fill-opacity:1.0; 
stroke:#000000; stroke-width:39.3701; stroke-opacity:1; 
stroke-linecap:round; stroke-linejoin:round;">
</g>
<g style="fill:#000000; fill-opacity:1.0; 
stroke:#000000; stroke-width:0; stroke-opacity:1; 
stroke-linecap:round; stroke-linejoin:round;">
<circle cx="12482.7" cy="13383.9" r="590.551" /> 
</g>
<g style="fill:#000000; fill-opacity:1.0; 
stroke:#000000; stroke-width:39.3701; stroke-opacity:1; 
stroke-linecap:round; stroke-linejoin:round;">
</g>
<g style="fill:#000000; fill-opacity:1.0; 
stroke:#000000; stroke-width:0; stroke-opacity:1; 
stroke-linecap:round; stroke-linejoin:round;">
<circle cx="16482.7" cy="13383.9" r="590.551" /> 
</g>
<g style="fill:#000000; fill-opacity:1.0; 
stroke:#000000; stroke-width:39.3701; stroke-opacity:1; 
stroke-linecap:round; stroke-linejoin:round;">
</g>
<g style="fill:#000000; fill-opacity:1.0; 
stroke:#000000; stroke-width:0; stroke-opacity:1; 
stroke-linecap:round; stroke-linejoin:round;">
<circle cx="18482.7" cy="13383.9" r="590.551" /> 
</g>
<g style="fill:#000000; fill-opacity:1.0; 
stroke:#000000; stroke-width:39.3701; stroke-opacity:1; 
stroke-linecap:round; stroke-linejoin:round;">
</g>
<g style="fill:#000000; fill-opacity:1.0; 
stroke:#000000; stroke-width:0; stroke-opacity:1; 
stroke-linecap:round; stroke-linejoin:round;">
<polyline style="fill-rule:evenodd;"
points="24261,2238
24261,1529
23277,1529
23277,2238
24261,2238
" /> 
<polyline style="fill-rule:evenodd;"
points="22687,2238
22687,1529
21703,1529
21703,2238
22687,2238
" /> 
<polyline style="fill-rule:evenodd;"
points="22195,2887
22195,3379
22785,3379
22785,2887
22195,2887
" /> 
<polyline style="fill-rule:evenodd;"
points="23179,2887
23179,3379
23770,3379
23770,2887
23179,2887
" /> 
<polyline style="fill-rule:evenodd;"
points="22155,3877
22155,4389
22746,4389
22746,3877
22155,3877
" /> 
<polyline style="fill-rule:evenodd;"
points="23218,3877
23218,4389
23809,4389
23809,3877
23218,3877
" /> 
<polyline style="fill-rule:evenodd;"
points="21457,5483
21457,4283
20807,4283
20807,5483
21457,5483
" /> 
<polyline style="fill-rule:evenodd;"
points="21432,3583
21432,1183
19032,1183
19032,3583
21432,3583
" /> 
<polyline style="fill-rule:evenodd;"
points="19657,5483
19657,4283
19007,4283
19007,5483
19657,5483
" /> 
<polyline style="fill-rule:evenodd;"
points="23182,8083
23182,7283
22782,7283
22782,8083
23182,8083
" /> 
<polyline style="fill-rule:evenodd;"
points="22282,8083
22282,7283
21882,7283
21882,8083
22282,8083
" /> 
<polyline style="fill-rule:evenodd;"
points="24082,8083
24082,7283
23682,7283
23682,8083
24082,8083
" /> 
<polyline style="fill-rule:evenodd;"
points="18238,10557
17726,10557
17726,11147
18238,11147
18238,10557
" /> 
<polyline style="fill-rule:evenodd;"
points="18238,11620
17726,11620
17726,12210
18238,12210
18238,11620
" /> 
<polyline style="fill-rule:evenodd;"
points="23988,8557
23476,8557
23476,9147
23988,9147
23988,8557
" /> 
<polyline style="fill-rule:evenodd;"
points="23988,9620
23476,9620
23476,10210
23988,10210
23988,9620
" /> 
<polyline style="fill-rule:evenodd;"
points="19007,6533
19007,7733
19657,7733
19657,6533
19007,6533
" /> 
<polyline style="fill-rule:evenodd;"
points="19032,8433
19032,10833
21432,10833
21432,8433
19032,8433
" /> 
<polyline style="fill-rule:evenodd;"
points="20807,6533
20807,7733
21457,7733
21457,6533
20807,6533
" /> 
<polyline style="fill-rule:evenodd;"
points="16655,9627
16655,10139
17246,10139
17246,9627
16655,9627
" /> 
<polyline style="fill-rule:evenodd;"
points="17718,9627
17718,10139
18309,10139
18309,9627
17718,9627
" /> 
<polyline style="fill-rule:evenodd;"
points="18261,2238
18261,1529
17277,1529
17277,2238
18261,2238
" /> 
<polyline style="fill-rule:evenodd;"
points="16687,2238
16687,1529
15703,1529
15703,2238
16687,2238
" /> 
<polyline style="fill-rule:evenodd;"
points="16195,2887
16195,3379
16785,3379
16785,2887
16195,2887
" /> 
<polyline style="fill-rule:evenodd;"
points="17179,2887
17179,3379
17770,3379
17770,2887
17179,2887
" /> 
<polyline style="fill-rule:evenodd;"
points="16155,3877
16155,4389
16746,4389
16746,3877
16155,3877
" /> 
<polyline style="fill-rule:evenodd;"
points="17218,3877
17218,4389
17809,4389
17809,3877
17218,3877
" /> 
<polyline style="fill-rule:evenodd;"
points="15457,5483
15457,4283
14807,4283
14807,5483
15457,5483
" /> 
<polyline style="fill-rule:evenodd;"
points="15432,3583
15432,1183
13032,1183
13032,3583
15432,3583
" /> 
<polyline style="fill-rule:evenodd;"
points="13657,5483
13657,4283
13007,4283
13007,5483
13657,5483
" /> 
<polyline style="fill-rule:evenodd;"
points="17182,8083
17182,7283
16782,7283
16782,8083
17182,8083
" /> 
<polyline style="fill-rule:evenodd;"
points="16282,8083
16282,7283
15882,7283
15882,8083
16282,8083
" /> 
<polyline style="fill-rule:evenodd;"
points="18082,8083
18082,7283
17682,7283
17682,8083
18082,8083
" /> 
<polyline style="fill-rule:evenodd;"
points="12238,10557
11726,10557
11726,11147
12238,11147
12238,10557
" /> 
<polyline style="fill-rule:evenodd;"
points="12238,11620
11726,11620
11726,12210
12238,12210
12238,11620
" /> 
<polyline style="fill-rule:evenodd;"
points="17238,10557
16726,10557
16726,11147
17238,11147
17238,10557
" /> 
<polyline style="fill-rule:evenodd;"
points="17238,11620
16726,11620
16726,12210
17238,12210
17238,11620
" /> 
<polyline style="fill-rule:evenodd;"
points="13007,6533
13007,7733
13657,7733
13657,6533
13007,6533
" /> 
<polyline style="fill-rule:evenodd;"
points="13032,8433
13032,10833
15432,10833
15432,8433
13032,8433
" /> 
<polyline style="fill-rule:evenodd;"
points="14807,6533
14807,7733
15457,7733
15457,6533
14807,6533
" /> 
<polyline style="fill-rule:evenodd;"
points="10655,9627
10655,10139
11246,10139
11246,9627
10655,9627
" /> 
<polyline style="fill-rule:evenodd;"
points="11718,9627
11718,10139
12309,10139
12309,9627
11718,9627
" /> 
<polyline style="fill-rule:evenodd;"
points="11182,8083
11182,7283
10782,7283
10782,8083
11182,8083
" /> 
<polyline style="fill-rule:evenodd;"
points="10282,8083
10282,7283
9882,7283
9882,8083
10282,8083
" /> 
<polyline style="fill-rule:evenodd;"
points="12082,8083
12082,7283
11682,7283
11682,8083
12082,8083
" /> 
<polyline style="fill-rule:evenodd;"
points="10195,2887
10195,3379
10785,3379
10785,2887
10195,2887
" /> 
<polyline style="fill-rule:evenodd;"
points="11179,2887
11179,3379
11770,3379
11770,2887
11179,2887
" /> 
<polyline style="fill-rule:evenodd;"
points="9457,5483
9457,4283
8807,4283
8807,5483
9457,5483
" /> 
<polyline style="fill-rule:evenodd;"
points="9432,3583
9432,1183
7032,1183
7032,3583
9432,3583
" /> 
<polyline style="fill-rule:evenodd;"
points="7657,5483
7657,4283
7007,4283
7007,5483
7657,5483
" /> 
<polyline style="fill-rule:evenodd;"
points="7007,6533
7007,7733
7657,7733
7657,6533
7007,6533
" /> 
<polyline style="fill-rule:evenodd;"
points="7032,8433
7032,10833
9432,10833
9432,8433
7032,8433
" /> 
<polyline style="fill-rule:evenodd;"
points="8807,6533
8807,7733
9457,7733
9457,6533
8807,6533
" /> 
<polyline style="fill-rule:evenodd;"
points="11238,10557
10726,10557
10726,11147
11238,11147
11238,10557
" /> 
<polyline style="fill-rule:evenodd;"
points="11238,11620
10726,11620
10726,12210
11238,12210
11238,11620
" /> 
<polyline style="fill-rule:evenodd;"
points="6488,9057
5976,9057
5976,9647
6488,9647
6488,9057
" /> 
<polyline style="fill-rule:evenodd;"
points="6488,10120
5976,10120
5976,10710
6488,10710
6488,10120
" /> 
<polyline style="fill-rule:evenodd;"
points="10155,3877
10155,4389
10746,4389
10746,3877
10155,3877
" /> 
<polyline style="fill-rule:evenodd;"
points="11218,3877
11218,4389
11809,4389
11809,3877
11218,3877
" /> 
<polyline style="fill-rule:evenodd;"
points="6488,6807
5976,6807
5976,7397
6488,7397
6488,6807
" /> 
<polyline style="fill-rule:evenodd;"
points="6488,7870
5976,7870
5976,8460
6488,8460
6488,7870
" /> 
<polyline style="fill-rule:evenodd;"
points="12261,2238
12261,1529
11277,1529
11277,2238
12261,2238
" /> 
<polyline style="fill-rule:evenodd;"
points="10687,2238
10687,1529
9703,1529
9703,2238
10687,2238
" /> 
<polyline style="fill-rule:evenodd;"
points="10905,16377
10905,16889
11496,16889
11496,16377
10905,16377
" /> 
<polyline style="fill-rule:evenodd;"
points="11968,16377
11968,16889
12559,16889
12559,16377
11968,16377
" /> 
<polyline style="fill-rule:evenodd;"
points="15059,16889
15059,16377
14468,16377
14468,16889
15059,16889
" /> 
<polyline style="fill-rule:evenodd;"
points="13996,16889
13996,16377
13405,16377
13405,16889
13996,16889
" /> 
<polyline style="fill-rule:evenodd;"
points="17559,16889
17559,16377
16968,16377
16968,16889
17559,16889
" /> 
<polyline style="fill-rule:evenodd;"
points="16496,16889
16496,16377
15905,16377
15905,16889
16496,16889
" /> 
<polyline style="fill-rule:evenodd;"
points="17559,18139
17559,17627
16968,17627
16968,18139
17559,18139
" /> 
<polyline style="fill-rule:evenodd;"
points="16496,18139
16496,17627
15905,17627
15905,18139
16496,18139
" /> 
<polyline style="fill-rule:evenodd;"
points="15059,18139
15059,17627
14468,17627
14468,18139
15059,18139
" /> 
<polyline style="fill-rule:evenodd;"
points="13996,18139
13996,17627
13405,17627
13405,18139
13996,18139
" /> 
<polyline style="fill-rule:evenodd;"
points="10937,17627
10937,18139
11527,18139
11527,17627
10937,17627
" /> 
<polyline style="fill-rule:evenodd;"
points="12000,17627
12000,18139
12590,18139
12590,17627
12000,17627
" /> 
<polyline style="fill-rule:evenodd;"
points="12559,15639
12559,15127
11968,15127
11968,15639
12559,15639
" /> 
<polyline style="fill-rule:evenodd;"
points="11496,15639
11496,15127
10905,15127
10905,15639
11496,15639
" /> 
<polyline style="fill-rule:evenodd;"
points="13405,15127
13405,15639
13996,15639
13996,15127
13405,15127
" /> 
<polyline style="fill-rule:evenodd;"
points="14468,15127
14468,15639
15059,15639
15059,15127
14468,15127
" /> 
<polyline style="fill-rule:evenodd;"
points="15905,15127
15905,15639
16496,15639
16496,15127
15905,15127
" /> 
<polyline style="fill-rule:evenodd;"
points="16968,15127
16968,15639
17559,15639
17559,15127
16968,15127
" /> 
<circle cx="23732.7" cy="13633.9" r="590.551" /> 
</g>
<g style="fill:#000000; fill-opacity:1.0; 
stroke:#000000; stroke-width:39.3701; stroke-opacity:1; 
stroke-linecap:round; stroke-linejoin:round;">
</g>
<g style="fill:#000000; fill-opacity:1.0; 
stroke:#000000; stroke-width:0; stroke-opacity:1; 
stroke-linecap:round; stroke-linejoin:round;">
<circle cx="14732.7" cy="18883.9" r="295.276" /> 
</g>
<g style="fill:#000000; fill-opacity:1.0; 
stroke:#000000; stroke-width:39.3701; stroke-opacity:1; 
stroke-linecap:round; stroke-linejoin:round;">
</g>
<g style="fill:#000000; fill-opacity:1.0; 
stroke:#000000; stroke-width:0; stroke-opacity:1; 
stroke-linecap:round; stroke-linejoin:round;">
<circle cx="12982.7" cy="18883.9" r="295.276" /> 
</g>
<g style="fill:#000000; fill-opacity:1.0; 
stroke:#000000; stroke-width:39.3701; stroke-opacity:1; 
stroke-linecap:round; stroke-linejoin:round;">
</g>
<g style="fill:#000000; fill-opacity:1.0; 
stroke:#000000; stroke-width:393.701; stroke-opacity:1; 
stroke-linecap:round; stroke-linejoin:round;">
</g>
<g style="fill:#000000; fill-opacity:0.0; 
stroke:#000000; stroke-width:393.701; stroke-opacity:1; 
stroke-linecap:round; stroke-linejoin:round;">
<path d="M11982 11915
L11982 13633
" />
<path d="M17982 13633
L17982 13383
" />
<path d="M17982 11915
L17982 13633
" />
</g>
<g style="fill:#000000; fill-opacity:0.0; 
stroke:#000000; stroke-width:787.402; stroke-opacity:1; 
stroke-linecap:round; stroke-linejoin:round;">
<path d="M22195 1883
L20732 1883
" />
<path d="M22195 1883
L22195 1596
" />
<path d="M17195 883
L16195 1883
" />
<path d="M8232 2383
L6245 2383
" />
<path d="M6245 2383
L5482 1621
" />
<path d="M5482 1621
L5482 883
" />
<path d="M9732 883
L5482 883
" />
<path d="M18732 883
L17982 883
" />
<path d="M17982 883
L17195 883
" />
<path d="M22195 1596
L21482 883
" />
<path d="M21482 883
L17982 883
" />
<path d="M15732 883
L11482 883
" />
<path d="M11482 883
L9732 883
" />
<path d="M10195 1883
L11195 883
" />
<path d="M11195 883
L11482 883
" />
<path d="M17195 883
L15732 883
" />
<path d="M15732 883
L14232 2383
" />
<path d="M20232 2383
L18732 883
" />
<path d="M20732 1883
L20232 2383
" />
</g>
<g style="fill:#000000; fill-opacity:0.0; 
stroke:#000000; stroke-width:295.276; stroke-opacity:1; 
stroke-linecap:round; stroke-linejoin:round;">
<path d="M11882 7683
L11882 8379
" />
<path d="M11882 8379
L11472 8788
" />
<path d="M11472 8788
L11472 10362
" />
<path d="M11472 10362
L10982 10852
" />
</g>
<g style="fill:#000000; fill-opacity:0.0; 
stroke:#000000; stroke-width:393.701; stroke-opacity:1; 
stroke-linecap:round; stroke-linejoin:round;">
<path d="M11882 7683
L11882 7952
" />
</g>
<g style="fill:#000000; fill-opacity:0.0; 
stroke:#000000; stroke-width:98.4252; stroke-opacity:1; 
stroke-linecap:round; stroke-linejoin:round;">
<path d="M11882 7883
L11882 7683
" />
</g>
<g style="fill:#000000; fill-opacity:0.0; 
stroke:#000000; stroke-width:295.276; stroke-opacity:1; 
stroke-linecap:round; stroke-linejoin:round;">
<path d="M17882 7683
L17882 8379
" />
<path d="M17882 8379
L17472 8788
" />
<path d="M17472 8788
L17472 10362
" />
<path d="M17472 10362
L16982 10852
" />
</g>
<g style="fill:#000000; fill-opacity:0.0; 
stroke:#000000; stroke-width:98.4252; stroke-opacity:1; 
stroke-linecap:round; stroke-linejoin:round;">
<path d="M17882 7883
L17882 7912
" />
<path d="M17882 7912
L17882 7683
" />
</g>
<g style="fill:#000000; fill-opacity:0.0; 
stroke:#000000; stroke-width:393.701; stroke-opacity:1; 
stroke-linecap:round; stroke-linejoin:round;">
<path d="M23882 7683
L23882 8702
" />
<path d="M23882 8702
L23732 8852
" />
</g>
<g style="fill:#000000; fill-opacity:0.0; 
stroke:#000000; stroke-width:98.4252; stroke-opacity:1; 
stroke-linecap:round; stroke-linejoin:round;">
<path d="M23732 7833
L23882 7683
" />
</g>
<g style="fill:#000000; fill-opacity:0.0; 
stroke:#000000; stroke-width:787.402; stroke-opacity:1; 
stroke-linecap:round; stroke-linejoin:round;">
<path d="M9482 11383
L8232 11383
" />
<path d="M8232 11383
L7732 11383
" />
</g>
<g style="fill:#000000; fill-opacity:0.0; 
stroke:#000000; stroke-width:393.701; stroke-opacity:1; 
stroke-linecap:round; stroke-linejoin:round;">
<path d="M9732 14633
L8232 13133
" />
<path d="M8232 13133
L8232 11383
" />
<path d="M12163 14633
L9732 14633
" />
<path d="M12264 15383
L12264 14734
" />
<path d="M12264 14734
L12163 14633
" />
<path d="M10490 3133
L10482 3133
" />
<path d="M10482 3133
L9732 3883
" />
<path d="M9732 3883
L8332 3883
" />
<path d="M8332 3883
L7332 4883
" />
</g>
<g style="fill:#000000; fill-opacity:0.0; 
stroke:#000000; stroke-width:98.4252; stroke-opacity:1; 
stroke-linecap:round; stroke-linejoin:round;">
<path d="M7764 11415
L7732 11383
" />
</g>
<g style="fill:#000000; fill-opacity:0.0; 
stroke:#000000; stroke-width:787.402; stroke-opacity:1; 
stroke-linecap:round; stroke-linejoin:round;">
<path d="M8232 9633
L8232 10133
" />
<path d="M7732 11383
L6982 11383
" />
<path d="M8232 10133
L9482 11383
" />
<path d="M7332 4883
L8232 5783
" />
<path d="M8232 5783
L8232 9633
" />
</g>
<g style="fill:#000000; fill-opacity:0.0; 
stroke:#000000; stroke-width:393.701; stroke-opacity:1; 
stroke-linecap:round; stroke-linejoin:round;">
<path d="M11769 1883
L11769 2838
" />
<path d="M11769 2838
L11514 3094
" />
<path d="M11514 3094
L11514 4133
" />
</g>
<g style="fill:#000000; fill-opacity:0.0; 
stroke:#000000; stroke-width:98.4252; stroke-opacity:1; 
stroke-linecap:round; stroke-linejoin:round;">
<path d="M11474 2178
L11769 1883
" />
</g>
<g style="fill:#000000; fill-opacity:0.0; 
stroke:#000000; stroke-width:787.402; stroke-opacity:1; 
stroke-linecap:round; stroke-linejoin:round;">
<path d="M14732 11383
L13982 11383
" />
<path d="M13982 11383
L12982 11383
" />
</g>
<g style="fill:#000000; fill-opacity:0.0; 
stroke:#000000; stroke-width:393.701; stroke-opacity:1; 
stroke-linecap:round; stroke-linejoin:round;">
<path d="M13701 11665
L13982 11383
" />
<path d="M13701 15383
L13701 11665
" />
<path d="M16490 3133
L16482 3133
" />
<path d="M16482 3133
L15732 3883
" />
<path d="M15732 3883
L14332 3883
" />
<path d="M14332 3883
L13332 4883
" />
</g>
<g style="fill:#000000; fill-opacity:0.0; 
stroke:#000000; stroke-width:787.402; stroke-opacity:1; 
stroke-linecap:round; stroke-linejoin:round;">
<path d="M14232 9633
L14232 10133
" />
<path d="M15482 11383
L14732 11383
" />
<path d="M14232 10133
L15482 11383
" />
<path d="M13332 4883
L14232 5783
" />
<path d="M14232 5783
L14232 9633
" />
</g>
<g style="fill:#000000; fill-opacity:0.0; 
stroke:#000000; stroke-width:393.701; stroke-opacity:1; 
stroke-linecap:round; stroke-linejoin:round;">
<path d="M17769 1883
L17769 2838
" />
<path d="M17769 2838
L17514 3094
" />
<path d="M17514 3094
L17514 4133
" />
</g>
<g style="fill:#000000; fill-opacity:0.0; 
stroke:#000000; stroke-width:98.4252; stroke-opacity:1; 
stroke-linecap:round; stroke-linejoin:round;">
<path d="M17514 2139
L17769 1883
" />
</g>
<g style="fill:#000000; fill-opacity:0.0; 
stroke:#000000; stroke-width:393.701; stroke-opacity:1; 
stroke-linecap:round; stroke-linejoin:round;">
<path d="M20482 11383
L20482 13383
" />
<path d="M20482 13383
L19232 14633
" />
<path d="M19232 14633
L16301 14633
" />
<path d="M16301 14633
L16201 14734
" />
<path d="M16201 14734
L16201 15383
" />
</g>
<g style="fill:#000000; fill-opacity:0.0; 
stroke:#000000; stroke-width:787.402; stroke-opacity:1; 
stroke-linecap:round; stroke-linejoin:round;">
<path d="M20482 11383
L19732 11383
" />
<path d="M21482 11383
L20482 11383
" />
</g>
<g style="fill:#000000; fill-opacity:0.0; 
stroke:#000000; stroke-width:393.701; stroke-opacity:1; 
stroke-linecap:round; stroke-linejoin:round;">
<path d="M22490 3133
L22482 3133
" />
<path d="M22482 3133
L21732 3883
" />
<path d="M21732 3883
L20332 3883
" />
<path d="M20332 3883
L19332 4883
" />
</g>
<g style="fill:#000000; fill-opacity:0.0; 
stroke:#000000; stroke-width:98.4252; stroke-opacity:1; 
stroke-linecap:round; stroke-linejoin:round;">
<path d="M19732 11633
L19732 11383
" />
</g>
<g style="fill:#000000; fill-opacity:0.0; 
stroke:#000000; stroke-width:787.402; stroke-opacity:1; 
stroke-linecap:round; stroke-linejoin:round;">
<path d="M20232 9633
L20232 10133
" />
<path d="M19732 11383
L18982 11383
" />
<path d="M20232 10133
L21482 11383
" />
<path d="M19332 4883
L20232 5783
" />
<path d="M20232 5783
L20232 9633
" />
</g>
<g style="fill:#000000; fill-opacity:0.0; 
stroke:#000000; stroke-width:393.701; stroke-opacity:1; 
stroke-linecap:round; stroke-linejoin:round;">
<path d="M23769 1883
L23769 2838
" />
<path d="M23769 2838
L23514 3094
" />
<path d="M23514 3094
L23514 4133
" />
<path d="M10982 7683
L10982 5633
" />
<path d="M10982 5633
L10232 4883
" />
<path d="M10451 4133
L10451 4602
" />
<path d="M10451 4602
L10169 4883
" />
<path d="M10169 4883
L10232 4883
" />
<path d="M10232 4883
L9132 4883
" />
</g>
<g style="fill:#000000; fill-opacity:0.0; 
stroke:#000000; stroke-width:98.4252; stroke-opacity:1; 
stroke-linecap:round; stroke-linejoin:round;">
<path d="M10982 7185
L10982 7683
" />
</g>
<g style="fill:#000000; fill-opacity:0.0; 
stroke:#000000; stroke-width:393.701; stroke-opacity:1; 
stroke-linecap:round; stroke-linejoin:round;">
<path d="M6232 8165
L6232 9352
" />
<path d="M7332 7133
L7264 7133
" />
<path d="M7264 7133
L6232 8165
" />
</g>
<g style="fill:#000000; fill-opacity:0.0; 
stroke:#000000; stroke-width:98.4252; stroke-opacity:1; 
stroke-linecap:round; stroke-linejoin:round;">
<path d="M6232 8165
L6232 8125
" />
<path d="M7224 7133
L7332 7133
" />
</g>
<g style="fill:#000000; fill-opacity:0.0; 
stroke:#000000; stroke-width:393.701; stroke-opacity:1; 
stroke-linecap:round; stroke-linejoin:round;">
<path d="M16982 7683
L16982 5633
" />
<path d="M16982 5633
L16232 4883
" />
<path d="M16451 4133
L16451 4665
" />
<path d="M16232 4883
L15132 4883
" />
<path d="M16451 4665
L16232 4883
" />
<path d="M12632 9226
L11982 9875
" />
<path d="M12632 8109
L12632 9226
" />
<path d="M11982 9875
L11982 9915
" />
<path d="M11982 9915
L11982 10852
" />
<path d="M13332 7133
L13332 7408
" />
<path d="M13332 7408
L12632 8109
" />
<path d="M22982 7683
L22982 5633
" />
<path d="M22982 5633
L22232 4883
" />
<path d="M22451 4133
L22451 4665
" />
<path d="M22232 4883
L21132 4883
" />
<path d="M22451 4665
L22232 4883
" />
</g>
<g style="fill:#000000; fill-opacity:0.0; 
stroke:#000000; stroke-width:98.4252; stroke-opacity:1; 
stroke-linecap:round; stroke-linejoin:round;">
<path d="M21132 4608
L21132 4883
" />
</g>
<g style="fill:#000000; fill-opacity:0.0; 
stroke:#000000; stroke-width:393.701; stroke-opacity:1; 
stroke-linecap:round; stroke-linejoin:round;">
<path d="M18632 9226
L17982 9875
" />
<path d="M18632 8109
L18632 9226
" />
<path d="M17982 9915
L17982 10852
" />
<path d="M17982 9875
L17982 9915
" />
<path d="M19332 7133
L19332 7408
" />
<path d="M19332 7408
L18632 8109
" />
<path d="M10982 11915
L10982 13633
" />
<path d="M6232 11104
L6232 13633
" />
<path d="M6232 10415
L6232 11104
" />
<path d="M16982 11915
L16982 13633
" />
<path d="M23732 9915
L23732 13633
" />
<path d="M11232 17883
L9232 17883
" />
<path d="M11201 15383
L11201 17852
" />
<path d="M11201 17852
L11232 17883
" />
<path d="M12982 16633
L12982 18883
" />
</g>
<g style="fill:#000000; fill-opacity:0.0; 
stroke:#000000; stroke-width:295.276; stroke-opacity:1; 
stroke-linecap:round; stroke-linejoin:round;">
<path d="M13701 16633
L14222 16112
" />
<path d="M16201 16633
L16161 16633
" />
<path d="M16161 16633
L15482 15954
" />
<path d="M14482 14633
L14222 14893
" />
<path d="M15482 15954
L15482 14883
" />
<path d="M15482 14883
L15232 14633
" />
<path d="M14222 14893
L14222 16112
" />
<path d="M15232 14633
L14482 14633
" />
</g>
<g style="fill:#000000; fill-opacity:0.0; 
stroke:#000000; stroke-width:393.701; stroke-opacity:1; 
stroke-linecap:round; stroke-linejoin:round;">
<path d="M12982 16633
L13701 16633
" />
<path d="M12264 16633
L12982 16633
" />
<path d="M14764 17883
L14764 18852
" />
<path d="M14764 15383
L14764 17883
" />
<path d="M17953 17883
L18732 17883
" />
<path d="M17264 17883
L17953 17883
" />
<path d="M17264 15383
L17264 17883
" />
</g>
<g style="fill:#000000; fill-opacity:1.0; 
stroke:#000000; stroke-width:100; stroke-opacity:1; 
stroke-linecap:round; stroke-linejoin:round;">
<polyline style="fill-rule:evenodd;"
points="5262,19604
24203,19604
24203,14348
23900,14474
23566,14474
23257,14346
23020,14110
22892,13801
22891,13467
23019,13158
23255,12921
23285,12909
23285,10374
23241,10309
23221,10210
23221,9620
23239,9527
23294,9442
23377,9385
23382,9384
23299,9330
23241,9246
23221,9147
23221,8557
23239,8464
23294,8379
23377,8322
23435,8310
23435,8123
23432,8108
23420,8176
23365,8261
23281,8318
23182,8338
22782,8338
22690,8321
22604,8266
22547,8183
22532,8108
22532,8133
22494,8225
22424,8295
22332,8333
22195,8333
22132,8271
22132,7733
22140,7733
22140,7633
22132,7633
22132,7096
22032,7096
22032,7633
22024,7633
22024,7733
22032,7733
22032,8271
21970,8333
21832,8333
21741,8295
21670,8225
21632,8133
21632,7912
21599,7945
21507,7983
21245,7983
21182,7921
21182,7183
21190,7183
21190,7083
21182,7083
21182,6346
21245,6283
21507,6283
21599,6321
21669,6392
21707,6484
21707,7021
21645,7083
21707,7083
21707,7105
21741,7071
21832,7033
21970,7033
22032,7096
22132,7096
22195,7033
22332,7033
22424,7071
22494,7142
22532,7234
22532,7257
22535,7241
22535,5818
22047,5330
21712,5330
21712,5483
21695,5576
21640,5661
21556,5718
21457,5738
20867,5738
20876,5783
20876,5783
20876,6283
21020,6283
21082,6346
21082,7083
21074,7083
21074,7183
21082,7183
21082,7921
21020,7983
20876,7983
20876,8178
21432,8178
21525,8196
21610,8251
21667,8334
21687,8433
21687,10678
21937,10928
22077,11137
22126,11383
22077,11630
21937,11839
21728,11978
21482,12027
21482,12027
20929,12027
20929,13383
20895,13554
20878,13580
20798,13699
19548,14949
19403,15046
19232,15080
17804,15080
17814,15127
17814,15639
17796,15732
17742,15817
17711,15838
17711,16178
17737,16195
17794,16278
17814,16377
17814,16889
17796,16982
17742,17067
17711,17088
17711,17428
17724,17437
18007,17437
18019,17408
18255,17171
18564,17043
18899,17043
19208,17170
19444,17407
19573,17715
19573,18050
19445,18359
19209,18596
18900,18724
18566,18724
18257,18596
18020,18360
18008,18330
17722,18330
17658,18374
17559,18394
16968,18394
16876,18377
16791,18322
16734,18238
16731,18225
16708,18281
16638,18351
16546,18389
16313,18389
16251,18327
16251,17933
16151,17933
16151,18327
16088,18389
15856,18389
15764,18351
15693,18281
15655,18189
15655,17996
15718,17933
16151,17933
16251,17933
16259,17933
16259,17833
16251,17833
16251,17440
16151,17440
16151,17833
15718,17833
15655,17771
15655,17578
15693,17486
15764,17416
15856,17377
16088,17377
16151,17440
16251,17440
16313,17377
16546,17377
16638,17416
16708,17486
16730,17539
16731,17535
16786,17450
16817,17428
16817,17089
16791,17072
16734,16988
16733,16983
16679,17067
16595,17124
16496,17144
15905,17144
15813,17127
15728,17072
15671,16988
15650,16889
15650,16685
15306,16341
15314,16377
15314,16889
15296,16982
15242,17067
15211,17088
15211,17428
15237,17445
15294,17528
15314,17627
15314,18139
15296,18232
15242,18317
15211,18338
15211,18613
15277,18774
15278,18991
15195,19192
15041,19345
14841,19429
14624,19429
14424,19346
14270,19193
14187,18992
14187,18775
14270,18575
14317,18528
14317,18339
14291,18322
14234,18238
14231,18225
14208,18281
14138,18351
14046,18389
13813,18389
13751,18327
13751,17933
13759,17933
13759,17833
13751,17833
13751,17440
13813,17377
14046,17377
14138,17416
14208,17486
14230,17539
14231,17535
14286,17450
14317,17428
14317,17089
14291,17072
14234,16988
14233,16983
14179,17067
14095,17124
13996,17144
13429,17144
13429,17377
13588,17377
13651,17440
13651,17833
13643,17833
13643,17933
13651,17933
13651,18327
13588,18389
13429,18389
13429,18559
13444,18574
13527,18774
13528,18991
13445,19192
13291,19345
13091,19429
12874,19429
12674,19346
12520,19193
12437,18992
12437,18775
12520,18575
12535,18559
12535,18389
12408,18389
12345,18327
12345,17933
12353,17933
12353,17833
12345,17833
12345,17440
12408,17377
12535,17377
12535,17144
11968,17144
11876,17127
11791,17072
11734,16988
11733,16983
11679,17067
11648,17088
11648,17408
11705,17445
11762,17528
11765,17541
11788,17486
11858,17416
11950,17377
12183,17377
12245,17440
12245,17833
12237,17833
12237,17933
12245,17933
12245,18327
12183,18389
11950,18389
11858,18351
11788,18281
11766,18227
11765,18232
11710,18317
11627,18374
11527,18394
10937,18394
10844,18377
10772,18330
9707,18330
9695,18359
9459,18596
9150,18724
8816,18724
8507,18596
8270,18360
8142,18051
8141,17717
8269,17408
8505,17171
8814,17043
9149,17043
9458,17170
9694,17407
9707,17437
10754,17437
10754,17089
10728,17072
10671,16988
10650,16889
10650,16377
10668,16285
10723,16200
10754,16178
10754,15839
10728,15822
10671,15738
10650,15639
10650,15127
10659,15080
9732,15080
9561,15046
9416,14949
7916,13449
7819,13304
7785,13133
7785,12027
6982,12027
6736,11978
6679,11940
6679,12909
6708,12920
6944,13157
7073,13465
7073,13800
6945,14109
6709,14346
6400,14474
6066,14474
5757,14346
5520,14110
5392,13801
5391,13467
5519,13158
5755,12921
5785,12909
5785,10874
5741,10809
5721,10710
5721,10120
5739,10027
5794,9942
5877,9885
5882,9884
5799,9830
5741,9746
5721,9647
5721,9057
5739,8964
5785,8892
5785,8624
5741,8559
5721,8460
5721,7870
5739,7777
5794,7692
5877,7635
5890,7632
5835,7609
5764,7539
5726,7447
5726,7214
5789,7152
6182,7152
6182,7160
6282,7160
6282,7152
6290,7152
6290,7052
6282,7052
6282,6619
6182,6619
6182,7052
5789,7052
5726,6989
5726,6757
5764,6665
5835,6595
5927,6557
6120,6557
6182,6619
6282,6619
6345,6557
6538,6557
6630,6595
6700,6665
6738,6757
6738,6989
6676,7052
6713,7052
6752,7013
6752,6533
6770,6441
6824,6356
6908,6299
7007,6278
7588,6278
7588,6050
7277,5738
7007,5738
6915,5721
6829,5666
6772,5583
6752,5483
6752,5152
6737,5130
6688,4883
6737,4637
6752,4615
6752,4283
6770,4191
6824,4106
6908,4049
7007,4028
7555,4028
7745,3838
7032,3838
6940,3821
6854,3766
6797,3683
6777,3583
6777,3027
6245,3027
6245,3027
5998,2978
5790,2839
5262,2311
5262,19604
" /> 
<polyline style="fill-rule:evenodd;"
points="15712,5483
15695,5576
15640,5661
15556,5718
15457,5738
14867,5738
14876,5783
14876,5783
14876,6283
15020,6283
15082,6346
15082,7083
15074,7083
15074,7183
15082,7183
15082,7921
15020,7983
14876,7983
14876,8178
15432,8178
15525,8196
15610,8251
15667,8334
15687,8433
15687,10678
15937,10928
16077,11137
16126,11383
16077,11630
15937,11839
15728,11978
15482,12027
15482,12027
14148,12027
14148,14406
14201,14352
14330,14266
14482,14236
15232,14236
15384,14266
15513,14352
15763,14602
15776,14621
15788,14563
15839,14486
15885,14418
15985,14317
16107,14236
16130,14221
16250,14197
16007,14096
15770,13860
15642,13551
15641,13217
15769,12908
16005,12671
16314,12543
16535,12543
16535,12374
16491,12309
16471,12210
16471,11620
16489,11527
16544,11442
16627,11385
16632,11384
16549,11330
16491,11246
16471,11147
16471,10557
16489,10464
16544,10379
16557,10369
16514,10351
16443,10281
16405,10189
16405,9996
16468,9933
16901,9933
16901,9941
17001,9941
17001,9933
17009,9933
17009,9833
17001,9833
17001,9440
16901,9440
16901,9833
16468,9833
16405,9771
16405,9578
16443,9486
16514,9416
16606,9377
16838,9377
16901,9440
17001,9440
17063,9377
17075,9377
17075,8788
17105,8636
17191,8507
17475,8223
17447,8183
17432,8108
17420,8176
17365,8261
17281,8318
17182,8338
16782,8338
16690,8321
16604,8266
16547,8183
16532,8108
16532,8133
16494,8225
16424,8295
16332,8333
16195,8333
16132,8271
16132,7733
16140,7733
16140,7633
16132,7633
16132,7096
16032,7096
16032,7633
16024,7633
16024,7733
16032,7733
16032,8271
15970,8333
15832,8333
15741,8295
15670,8225
15632,8133
15632,7912
15599,7945
15507,7983
15245,7983
15182,7921
15182,7183
15190,7183
15190,7083
15182,7083
15182,6346
15245,6283
15507,6283
15599,6321
15669,6392
15707,6484
15707,7021
15645,7083
15707,7083
15707,7105
15741,7071
15832,7033
15970,7033
16032,7096
16132,7096
16195,7033
16332,7033
16424,7071
16494,7142
16532,7234
16532,7257
16535,7241
16535,5818
16047,5330
15712,5330
15712,5483
" /> 
<polyline style="fill-rule:evenodd;"
points="9712,5483
9695,5576
9640,5661
9556,5718
9457,5738
8867,5738
8876,5783
8876,5783
8876,6283
9020,6283
9082,6346
9082,7083
9074,7083
9074,7183
9082,7183
9082,7921
9020,7983
8876,7983
8876,8178
9432,8178
9525,8196
9610,8251
9667,8334
9687,8433
9687,10678
9937,10928
10077,11137
10126,11383
10077,11630
9937,11839
9728,11978
9482,12027
9482,12027
8679,12027
8679,12948
9917,14187
10225,14187
10007,14096
9770,13860
9642,13551
9641,13217
9769,12908
10005,12671
10314,12543
10535,12543
10535,12374
10491,12309
10471,12210
10471,11620
10489,11527
10544,11442
10627,11385
10632,11384
10549,11330
10491,11246
10471,11147
10471,10557
10489,10464
10544,10379
10557,10369
10514,10351
10443,10281
10405,10189
10405,9996
10468,9933
10901,9933
10901,9941
11001,9941
11001,9933
11009,9933
11009,9833
11001,9833
11001,9440
10901,9440
10901,9833
10468,9833
10405,9771
10405,9578
10443,9486
10514,9416
10606,9377
10838,9377
10901,9440
11001,9440
11063,9377
11075,9377
11075,8788
11105,8636
11191,8507
11475,8223
11447,8183
11432,8108
11420,8176
11365,8261
11281,8318
11182,8338
10782,8338
10690,8321
10604,8266
10547,8183
10532,8108
10532,8133
10494,8225
10424,8295
10332,8333
10195,8333
10132,8271
10132,7733
10140,7733
10140,7633
10132,7633
10132,7096
10032,7096
10032,7633
10024,7633
10024,7733
10032,7733
10032,8271
9970,8333
9832,8333
9741,8295
9670,8225
9632,8133
9632,7912
9599,7945
9507,7983
9245,7983
9182,7921
9182,7183
9190,7183
9190,7083
9182,7083
9182,6346
9245,6283
9507,6283
9599,6321
9669,6392
9707,6484
9707,7021
9645,7083
9707,7083
9707,7105
9741,7071
9832,7033
9970,7033
10032,7096
10132,7096
10195,7033
10332,7033
10424,7071
10494,7142
10532,7234
10532,7257
10535,7241
10535,5818
10047,5330
9712,5330
9712,5483
" /> 
</g>
<g style="fill:#FFFFFF; fill-opacity:1.0; 
stroke:#FFFFFF; stroke-width:100; stroke-opacity:1; 
stroke-linecap:round; stroke-linejoin:round;">
</g>
<g style="fill:#000000; fill-opacity:1.0; 
stroke:#000000; stroke-width:100; stroke-opacity:1; 
stroke-linecap:round; stroke-linejoin:round;">
</g> 
</svg>
